<svg version="1.1" id="Layer_1" xmlns="http://www.w3.org/2000/svg" xmlns:xlink="http://www.w3.org/1999/xlink" x="0px" y="0px"
	 viewBox="0 0 512 512" style="enable-background:new 0 0 512 512;" xml:space="preserve">
<path d="M256,0C114.6,0,0,114.6,0,256s114.6,256,256,256s256-114.6,256-256S397.4,0,256,0z M381.7,175.4l-42,198
	c-3.1,14-11.5,17.5-23.1,10.8l-64-47.2l-30.9,29.7c-3.4,3.4-6.3,6.3-12.9,6.3l4.5-65.1L332,200.8c5.2-4.5-1.2-7.1-8-2.6l-146.6,92.3
	l-63.2-19.7c-13.7-4.4-14-13.7,2.9-20.3h0L364,155.3C375.4,151.1,385.4,158.1,381.7,175.4L381.7,175.4z"/>
</svg>
