<?xml version="1.0" encoding="utf-8"?>
<!-- Generator: Adobe Illustrator 19.2.1, SVG Export Plug-In . SVG Version: 6.00 Build 0)  -->
<svg version="1.1" id="layer" xmlns="http://www.w3.org/2000/svg" xmlns:xlink="http://www.w3.org/1999/xlink" x="0px" y="0px"
	 viewBox="0 0 652 652" style="enable-background:new 0 0 652 652;" xml:space="preserve">
<style type="text/css">
	.st0{fill:#333333;}
	.st1{fill:#FCB400;}
	.st2{fill:#18BFFF;}
	.st3{fill:#F82B60;}
</style>
<g>
	<path class="st0" d="M261.3,331.6l-10.4-28.2c-0.4-1.2-2.1-1.2-2.5,0L238,331.6c-0.3,0.9,0.3,1.8,1.2,1.8h20.9
		C261,333.4,261.7,332.5,261.3,331.6 M266.2,347.5h-33c-0.6,0-1,0.3-1.2,0.9l-6.5,17.5c-0.2,0.5-0.7,0.9-1.2,0.9h-14.3
		c-0.9,0-1.6-0.9-1.2-1.8l32.9-82.1c0.2-0.5,0.7-0.8,1.2-0.8h13.7c0.5,0,1,0.3,1.2,0.8l32.9,82.1c0.3,0.9-0.3,1.8-1.2,1.8h-14.3
		c-0.6,0-1-0.3-1.2-0.9l-6.5-17.5C267.2,347.8,266.7,347.5,266.2,347.5 M297.4,310.8h12.2c0.7,0,1.3,0.6,1.3,1.3v53.3
		c0,0.7-0.6,1.3-1.3,1.3h-12.2c-0.7,0-1.3-0.6-1.3-1.3v-53.3C296.1,311.4,296.7,310.8,297.4,310.8 M355.6,323.7
		c0,0.7-0.6,1.3-1.3,1.3h-0.4c-6.1,0-10.5,1.5-13.3,4.4c-2.8,2.9-4.2,7.7-4.2,14.4v21.6c0,0.7-0.6,1.3-1.3,1.3h-12.1
		c-0.7,0-1.3-0.6-1.3-1.3v-53.3c0-0.7,0.6-1.3,1.3-1.3h12c0.7,0,1.3,0.6,1.3,1.3v10.5h0.2c1.5-4.4,3.8-7.7,6.9-10
		c3.1-2.3,7-3.5,11.6-3.5h0.6V323.7z M389.1,323.3c-0.7,0-1.3,0.6-1.3,1.3v22.2c0,2.3,0.4,3.9,1.3,4.8c0.9,1,2.4,1.5,4.6,1.5h1.2
		c0.7,0,1.3,0.6,1.3,1.3v11.2c0,0.7-0.6,1.3-1.3,1.3h-5.2c-5.4,0-9.6-1.4-12.5-4.2c-2.9-2.8-4.4-6.9-4.4-12.4v-25.7
		c0-0.7-0.6-1.3-1.3-1.3h-7.6c-0.7,0-1.3-0.6-1.3-1.3v-9.8c0-0.7,0.6-1.3,1.3-1.3h7.6c0.7,0,1.3-0.6,1.3-1.3v-19.7
		c0-0.7,0.6-1.3,1.3-1.3h12.2c0.7,0,1.3,0.6,1.3,1.3v19.7c0,0.7,0.6,1.3,1.3,1.3h8.9c0.7,0,1.3,0.6,1.3,1.3v9.8
		c0,0.7-0.6,1.3-1.3,1.3H389.1z M445.1,350.1c2.8-2.9,4.2-6.7,4.2-11.4c0-4.7-1.4-8.5-4.2-11.4c-2.8-2.9-6.4-4.4-11-4.4
		c-4.5,0-8.2,1.5-11,4.4c-2.8,2.9-4.2,6.7-4.2,11.4c0,4.7,1.4,8.5,4.2,11.4c2.8,2.9,6.4,4.4,11,4.4
		C438.7,354.5,442.3,353,445.1,350.1 M416.9,365c-4.1-2.3-7.4-5.7-9.7-10.2c-2.4-4.5-3.6-9.8-3.6-16c0-6.2,1.2-11.6,3.6-16
		c2.4-4.5,5.6-7.9,9.7-10.2c4.1-2.3,8.6-3.5,13.6-3.5c4.4,0,8.1,0.8,11.2,2.5c3.1,1.7,5.6,4.1,7.4,7.1h0.2v-6.5
		c0-0.7,0.6-1.3,1.3-1.3h12.1c0.7,0,1.3,0.6,1.3,1.3v53.3c0,0.7-0.6,1.3-1.3,1.3h-12.1c-0.7,0-1.3-0.6-1.3-1.3v-6.5h-0.2
		c-1.9,3.1-4.3,5.4-7.4,7.1c-3.1,1.7-6.8,2.5-11.2,2.5C425.5,368.5,421,367.4,416.9,365 M514.5,350.1c2.8-2.9,4.2-6.7,4.2-11.4
		c0-4.7-1.4-8.5-4.2-11.4c-2.8-2.9-6.4-4.4-11-4.4c-4.5,0-8.2,1.5-11,4.4c-2.8,2.9-4.2,6.7-4.2,11.4c0,4.7,1.4,8.5,4.2,11.4
		c2.8,2.9,6.4,4.4,11,4.4C508,354.5,511.7,353,514.5,350.1 M496.1,366c-3.1-1.7-5.6-4.1-7.4-7.1h-0.2v6.5c0,0.7-0.6,1.3-1.3,1.3
		h-12.2c-0.7,0-1.3-0.6-1.3-1.3v-82.1c0-0.7,0.6-1.3,1.3-1.3h12.2c0.7,0,1.3,0.6,1.3,1.3v35.4h0.2c1.9-3.1,4.3-5.4,7.4-7.1
		c3.1-1.7,6.8-2.5,11.2-2.5c4.9,0,9.4,1.2,13.6,3.5c4.1,2.3,7.4,5.7,9.7,10.2c2.4,4.5,3.6,9.8,3.6,16c0,6.2-1.2,11.6-3.6,16
		c-2.4,4.5-5.6,7.9-9.7,10.2s-8.6,3.5-13.6,3.5C502.9,368.5,499.2,367.7,496.1,366 M554.8,366.7h-12.2c-0.7,0-1.3-0.6-1.3-1.3v-82.1
		c0-0.7,0.6-1.3,1.3-1.3h12.2c0.7,0,1.3,0.6,1.3,1.3v82.1C556.1,366.1,555.5,366.7,554.8,366.7 M583.6,323.7c-2,1.6-3.4,3.9-4.1,6.9
		c-0.2,0.8,0.4,1.6,1.3,1.6h23.3c0.8,0,1.4-0.7,1.3-1.5c-0.5-2.8-1.7-5.1-3.6-6.8c-2.3-2-5.3-3-9-3C589,321,586,321.9,583.6,323.7
		 M613.5,316.8c4.8,5.2,7.1,12.6,7.1,22.1v1.6c0,0.7-0.6,1.3-1.3,1.3h-38.9c-0.8,0-1.5,0.7-1.3,1.6c0.6,3.5,2.2,6.3,4.7,8.4
		c2.9,2.4,6.5,3.6,10.8,3.6c5.6,0,10.8-2.2,15.6-6.6c0.6-0.5,1.5-0.4,2,0.2l6,8.5c0.4,0.5,0.3,1.3-0.2,1.7c-2.9,2.6-6.1,4.7-9.7,6.4
		c-3.9,1.9-8.4,2.8-13.7,2.8c-6.1,0-11.3-1.2-15.9-3.7c-4.5-2.5-8-5.9-10.5-10.4c-2.5-4.5-3.8-9.7-3.8-15.6c0-5.9,1.2-11.1,3.6-15.6
		c2.4-4.5,5.8-8,10.2-10.5c4.4-2.5,9.4-3.8,15.3-3.8C602,309,608.7,311.6,613.5,316.8 M312.6,291.1c0,5-4,9-9,9c-5,0-9-4-9-9
		c0-5,4-9,9-9C308.5,282.1,312.6,286.1,312.6,291.1"/>
	<path class="st1" d="M90.3,258.1l-58.2,24.1c-3.2,1.3-3.2,5.9,0.1,7.2l58.4,23.2c5.1,2,10.9,2,16,0l58.4-23.2
		c3.3-1.3,3.3-5.9,0.1-7.2l-58.2-24.1C101.6,255.9,95.6,255.9,90.3,258.1"/>
	<path class="st2" d="M103.8,325.3v57.9c0,2.8,2.8,4.6,5.3,3.6l65.1-25.3c1.5-0.6,2.5-2,2.5-3.6V300c0-2.8-2.8-4.6-5.3-3.6
		l-65.1,25.3C104.8,322.2,103.8,323.7,103.8,325.3"/>
	<path class="st3" d="M88.6,328.2l-19.3,9.3l-2,0.9l-40.8,19.5c-2.6,1.2-5.9-0.6-5.9-3.5v-54.3c0-1,0.5-1.9,1.2-2.6
		c0.3-0.3,0.6-0.5,1-0.7c1-0.6,2.4-0.7,3.5-0.3l61.9,24.5C91.4,322.4,91.6,326.8,88.6,328.2"/>
	<path d="M88.6,328.2l-19.3,9.3l-47.4-40c0.3-0.3,0.6-0.5,1-0.7c1-0.6,2.4-0.7,3.5-0.3l61.9,24.5C91.4,322.4,91.6,326.8,88.6,328.2"
		/>
</g>
</svg>
