<svg xmlns="http://www.w3.org/2000/svg" viewBox="0 0 600 130.63"><title>airtable__logo</title><path d="M261.3,82.6,250.9,54.4a1.32,1.32,0,0,0-2.5,0L238,82.6a1.32,1.32,0,0,0,1.2,1.8h20.9a1.28,1.28,0,0,0,1.2-1.8m4.9,15.9h-33a1.18,1.18,0,0,0-1.2.9l-6.5,17.5a1.4,1.4,0,0,1-1.2.9H210a1.28,1.28,0,0,1-1.2-1.8l32.9-82.1a1.3,1.3,0,0,1,1.2-.8h13.7a1.3,1.3,0,0,1,1.2.8L290.7,116a1.32,1.32,0,0,1-1.2,1.8H275.2a1.18,1.18,0,0,1-1.2-.9l-6.5-17.5a1.48,1.48,0,0,0-1.3-.9m31.2-36.7h12.2a1.32,1.32,0,0,1,1.3,1.3v53.3a1.32,1.32,0,0,1-1.3,1.3H297.4a1.32,1.32,0,0,1-1.3-1.3V63.1a1.32,1.32,0,0,1,1.3-1.3m58.2,12.9a1.32,1.32,0,0,1-1.3,1.3h-.4c-6.1,0-10.5,1.5-13.3,4.4s-4.2,7.7-4.2,14.4v21.6a1.32,1.32,0,0,1-1.3,1.3H323a1.32,1.32,0,0,1-1.3-1.3V63.1a1.32,1.32,0,0,1,1.3-1.3h12a1.32,1.32,0,0,1,1.3,1.3V73.6h.2a20,20,0,0,1,6.9-10A19,19,0,0,1,355,60.1h.6V74.7Zm33.5-.4a1.32,1.32,0,0,0-1.3,1.3V97.8c0,2.3.4,3.9,1.3,4.8s2.4,1.5,4.6,1.5h1.2a1.32,1.32,0,0,1,1.3,1.3v11.2a1.32,1.32,0,0,1-1.3,1.3h-5.2c-5.4,0-9.6-1.4-12.5-4.2s-4.4-6.9-4.4-12.4V75.6a1.32,1.32,0,0,0-1.3-1.3h-7.6a1.32,1.32,0,0,1-1.3-1.3V63.2a1.32,1.32,0,0,1,1.3-1.3h7.6a1.32,1.32,0,0,0,1.3-1.3V40.9a1.32,1.32,0,0,1,1.3-1.3h12.2a1.32,1.32,0,0,1,1.3,1.3V60.6a1.32,1.32,0,0,0,1.3,1.3h8.9a1.32,1.32,0,0,1,1.3,1.3V73a1.32,1.32,0,0,1-1.3,1.3Zm56,26.8q4.2-4.35,4.2-11.4t-4.2-11.4a14.53,14.53,0,0,0-11-4.4,14.69,14.69,0,0,0-11,4.4q-4.2,4.35-4.2,11.4t4.2,11.4a15.95,15.95,0,0,0,22,0M416.9,116a23.94,23.94,0,0,1-9.7-10.2,33.45,33.45,0,0,1-3.6-16,33.17,33.17,0,0,1,3.6-16,24.54,24.54,0,0,1,9.7-10.2,27.27,27.27,0,0,1,13.6-3.5,22.89,22.89,0,0,1,11.2,2.5,19.42,19.42,0,0,1,7.4,7.1h.2V63.2a1.32,1.32,0,0,1,1.3-1.3h12.1a1.32,1.32,0,0,1,1.3,1.3v53.3a1.32,1.32,0,0,1-1.3,1.3H450.6a1.32,1.32,0,0,1-1.3-1.3V110h-.2a19.39,19.39,0,0,1-7.4,7.1,22.89,22.89,0,0,1-11.2,2.5,27.34,27.34,0,0,1-13.6-3.6m97.6-14.9q4.2-4.35,4.2-11.4t-4.2-11.4a14.53,14.53,0,0,0-11-4.4,14.69,14.69,0,0,0-11,4.4q-4.2,4.35-4.2,11.4t4.2,11.4a14.53,14.53,0,0,0,11,4.4,14.69,14.69,0,0,0,11-4.4M496.1,117a19.42,19.42,0,0,1-7.4-7.1h-.2v6.5a1.32,1.32,0,0,1-1.3,1.3H475a1.32,1.32,0,0,1-1.3-1.3V34.3A1.32,1.32,0,0,1,475,33h12.2a1.32,1.32,0,0,1,1.3,1.3V69.7h.2a19.39,19.39,0,0,1,7.4-7.1,22.89,22.89,0,0,1,11.2-2.5,27.82,27.82,0,0,1,13.6,3.5,23.94,23.94,0,0,1,9.7,10.2,33.45,33.45,0,0,1,3.6,16,33.17,33.17,0,0,1-3.6,16,24.54,24.54,0,0,1-9.7,10.2,27.27,27.27,0,0,1-13.6,3.5,22.89,22.89,0,0,1-11.2-2.5m58.7.7H542.6a1.32,1.32,0,0,1-1.3-1.3V34.3a1.32,1.32,0,0,1,1.3-1.3h12.2a1.32,1.32,0,0,1,1.3,1.3v82.1a1.32,1.32,0,0,1-1.3,1.3m28.8-43a12,12,0,0,0-4.1,6.9,1.3,1.3,0,0,0,1.3,1.6h23.3a1.32,1.32,0,0,0,1.3-1.5,11.58,11.58,0,0,0-3.6-6.8,13.22,13.22,0,0,0-9-3,15.47,15.47,0,0,0-9.2,2.8m29.9-6.9c4.8,5.2,7.1,12.6,7.1,22.1v1.6a1.32,1.32,0,0,1-1.3,1.3H580.4a1.31,1.31,0,0,0-1.3,1.6,13.62,13.62,0,0,0,4.7,8.4,16.37,16.37,0,0,0,10.8,3.6q8.4,0,15.6-6.6a1.43,1.43,0,0,1,2,.2l6,8.5a1.25,1.25,0,0,1-.2,1.7,39.81,39.81,0,0,1-9.7,6.4,30.75,30.75,0,0,1-13.7,2.8,32.48,32.48,0,0,1-15.9-3.7,26.27,26.27,0,0,1-10.5-10.4,31.61,31.61,0,0,1-3.8-15.6A32.65,32.65,0,0,1,568,74.1a25.79,25.79,0,0,1,10.2-10.5,30.19,30.19,0,0,1,15.3-3.8c8.5.2,15.2,2.8,20,8M312.6,42.1a9,9,0,1,1-9-9,9,9,0,0,1,9,9" transform="translate(-20.6 -7.45)" fill="#333"/><path d="M90.3,9.1,32.1,33.2a3.88,3.88,0,0,0,.1,7.2L90.6,63.6a22.08,22.08,0,0,0,16,0L165,40.4a3.88,3.88,0,0,0,.1-7.2L106.9,9.1a21.7,21.7,0,0,0-16.6,0" transform="translate(-20.6 -7.45)" fill="#fcb400"/><path d="M103.8,76.3v57.9a3.86,3.86,0,0,0,5.3,3.6l65.1-25.3a3.89,3.89,0,0,0,2.5-3.6V51a3.86,3.86,0,0,0-5.3-3.6L106.3,72.7a3.79,3.79,0,0,0-2.5,3.6" transform="translate(-20.6 -7.45)" fill="#18bfff"/><path d="M88.6,79.2,69.3,88.5l-2,.9L26.5,108.9c-2.6,1.2-5.9-.6-5.9-3.5V51.1a3.73,3.73,0,0,1,1.2-2.6,3.59,3.59,0,0,1,1-.7,4.28,4.28,0,0,1,3.5-.3L88.2,72c3.2,1.4,3.4,5.8.4,7.2" transform="translate(-20.6 -7.45)" fill="#f82b60"/><path d="M88.6,79.2,69.3,88.5l-47.4-40a3.59,3.59,0,0,1,1-.7,4.28,4.28,0,0,1,3.5-.3L88.3,72c3.1,1.4,3.3,5.8.3,7.2" transform="translate(-20.6 -7.45)"/></svg>