<svg width="107" height="89" viewBox="0 0 107 89" fill="none" xmlns="http://www.w3.org/2000/svg">
<path d="M51.7478 22.146L38.9182 31.6517C38.5563 31.9195 38.0453 31.8437 37.7764 31.4818L22.2231 10.4874L36.3791 0L51.9214 20.9785C52.1965 21.3489 52.1182 21.8709 51.7478 22.146Z" fill="#129AC6"/>
<path d="M12.4226 51.6058C17.526 51.6058 21.6632 47.4687 21.6632 42.3653C21.6632 37.2619 17.526 33.1248 12.4226 33.1248C7.31925 33.1248 3.18213 37.2619 3.18213 42.3653C3.18213 47.4687 7.31925 51.6058 12.4226 51.6058Z" fill="#513E99"/>
<path d="M102.059 60.8513C93.6962 60.8513 86.9165 67.631 86.9165 75.9938H102.059V60.8513Z" fill="#4FBF9F"/>
<path d="M51.129 65.7753C42.2576 65.7753 35.0659 72.9669 35.0659 81.8383H67.1932C67.192 72.9669 60.0003 65.7753 51.129 65.7753Z" fill="#EB8A23"/>
<path d="M6.64648 65.5125L23.8647 61.0322L19.4468 78.3678L6.64648 65.5125Z" fill="#AB3593"/>
<path d="M88.057 24.6251C86.7318 28.9905 82.6782 32.1689 77.88 32.1689C73.0819 32.1689 69.0283 28.9905 67.7031 24.6251H55.4272C56.937 35.681 66.411 44.2002 77.88 44.2002C89.3503 44.2002 98.8243 35.6798 100.333 24.6251H88.057V24.6251Z" fill="#F16061"/>
<path d="M55.4288 32.8107C53.2369 32.8107 51.4546 34.5942 51.4546 36.7849V43.1331H59.4042V36.7849C59.403 34.5942 57.6194 32.8107 55.4288 32.8107ZM57.782 41.5121H53.0756V36.7849C53.0756 35.4878 54.1318 34.4316 55.4288 34.4316C56.7258 34.4316 57.782 35.4878 57.782 36.7849V41.5121Z" fill="white"/>
<path d="M95.0994 46.9116C95.0994 46.7001 95.0236 46.4923 94.8684 46.3371L85.3943 36.9156V30.0821H79.4483V35.1101H76.545V30.0821H70.2971V35.1101H67.9842V24.0481H67.5368L55.4271 10.4948L43.3188 24.0481H42.8713V35.1088H40.5585V30.0809H34.3105V35.1088H31.4072V30.0809H25.4612V36.9144L15.9859 46.3358C15.8307 46.4911 15.7549 46.6989 15.7549 46.9104H15.7476V68.7532C15.7476 69.2006 16.1106 69.5637 16.558 69.5637H35.0635H35.874H42.8689H48.0032H48.2868H62.5638H62.8474H67.9817H74.9766H75.7871H94.2914C94.7388 69.5637 95.1018 69.2006 95.1018 68.7532V46.9116H95.0994ZM92.3428 46.1134L76.9252 46.2099L84.5912 38.4046L92.3428 46.1134ZM55.4284 12.9287L65.3632 24.0493H45.4935L55.4284 12.9287ZM26.2655 38.4033L33.9315 46.2087L18.5127 46.1134L26.2655 38.4033ZM23.8646 67.9158V63.1886C23.8646 61.8915 24.9208 60.8353 26.2179 60.8353C27.5149 60.8353 28.5711 61.8915 28.5711 63.1886V67.9158H23.8646ZM30.1921 67.9427V63.1886C30.1921 60.9967 28.4085 59.2144 26.2179 59.2144C24.026 59.2144 22.2437 60.9979 22.2437 63.1886V67.9427H17.371V47.727L35.066 47.8382V67.9427H30.1921ZM36.6869 67.9427V46.7014L27.0834 36.9217V31.7031H29.7862V36.731H35.9327V31.7031H38.9375V36.731H42.8726V67.9415H36.6869V67.9427ZM49.9114 67.9427V57.6778C49.9114 54.6363 52.3857 52.1608 55.4284 52.1608C58.4711 52.1608 60.9453 54.6363 60.9453 57.6778V67.9415H49.9114V67.9427ZM62.8499 67.9427H62.5663V57.6778C62.5663 53.7415 59.3647 50.5399 55.4284 50.5399C51.4921 50.5399 48.2905 53.7427 48.2905 57.6778V67.9415H48.0069H44.4935V25.6691H66.3644V67.9415H62.8499V67.9427ZM74.1698 67.9427H67.9854V36.731H71.9205V31.7031H74.9253V36.731H81.0718V31.7031H83.7746V36.9217L74.171 46.7014V67.9427H74.1698ZM82.2857 67.9158V63.1886C82.2857 61.8915 83.3419 60.8353 84.6389 60.8353C85.9359 60.8353 86.9921 61.8915 86.9921 63.1886V67.9158H82.2857ZM88.6131 67.9427V63.1886C88.6131 60.9967 86.8295 59.2144 84.6389 59.2144C82.447 59.2144 80.6647 60.9979 80.6647 63.1886V67.9427H75.792V47.8382L93.4845 47.727V67.9415H88.6131V67.9427Z" fill="white"/>
<path d="M95.0774 47.7283H93.5127V82.4679H95.0774V47.7283Z" fill="white"/>
<path d="M44.4773 41.8286H42.9126V76.5695H44.4773V41.8286Z" fill="white"/>
<path d="M30.159 66.6249H28.5942V88.3148H30.159V66.6249Z" fill="white"/>
<path d="M27.0003 24.1141H25.4355V37.9719H27.0003V24.1141Z" fill="white"/>
<path d="M76.573 19.7878H75.0083V34.9524H76.573V19.7878Z" fill="white"/>
<path d="M75.7996 57.7511H74.2349V72.9144H75.7996V57.7511Z" fill="white"/>
<path d="M22.025 46.1354H9.47168V47.7001H22.025V46.1354Z" fill="white"/>
<path d="M106.288 46.1855H88.5132V47.7503H106.288V46.1855Z" fill="white"/>
<path d="M99.5162 68.027H0V69.5917H99.5162V68.027Z" fill="white"/>
<path d="M50.4084 4.76309L49.2383 5.80383L62.226 20.4057L63.3961 19.365L50.4084 4.76309Z" fill="white"/>
</svg>
