<svg xmlns="http://www.w3.org/2000/svg" xmlns:xlink="http://www.w3.org/1999/xlink" viewBox="0 0 652 250"><defs><linearGradient id="a" x1="135.83" y1="561.06" x2="51.75" y2="652.22" gradientTransform="translate(-6 -549.75)" gradientUnits="userSpaceOnUse"><stop offset="0.58" stop-color="#a0a8d4"/><stop offset="0.73" stop-color="#8791c7"/><stop offset="0.91" stop-color="#6470b4"/></linearGradient><linearGradient id="b" x1="137.53" y1="787.4" x2="221.63" y2="696.26" xlink:href="#a"/><linearGradient id="c" x1="136.74" y1="557.25" x2="136.74" y2="790.77" gradientTransform="translate(-6 -549.75)" gradientUnits="userSpaceOnUse"><stop offset="0" stop-color="#513eff"/><stop offset="0.18" stop-color="#5157ff"/><stop offset="0.57" stop-color="#5298ff"/><stop offset="1" stop-color="#52e5ff"/></linearGradient></defs><title>ENS__Logo</title><path d="M53.5,102.4c2.3,4.9,8,14.6,8,14.6L127,8.7,63,53.3a28.2,28.2,0,0,0-9.1,10A46.47,46.47,0,0,0,53.5,102.4Z" fill="url(#a)"/><path d="M27.5,138a73.06,73.06,0,0,0,28.6,53l70.7,49.3S82.6,176.5,45.2,113.1a63.86,63.86,0,0,1-7.5-21.6,36.24,36.24,0,0,1,0-10.4c-1,1.8-2.9,5.5-2.9,5.5a81.14,81.14,0,0,0-7.6,24.5A161.11,161.11,0,0,0,27.5,138Z" fill="#a0a8d4"/><path d="M207.9,146.6c-2.3-4.9-8-14.6-8-14.6L134.4,240.3l63.9-44.6a28.2,28.2,0,0,0,9.1-10A46.12,46.12,0,0,0,207.9,146.6Z" fill="url(#b)"/><path d="M233.9,110.9a73.06,73.06,0,0,0-28.6-53L134.6,8.6s44.2,63.8,81.6,127.2a63.86,63.86,0,0,1,7.5,21.6,36.24,36.24,0,0,1,0,10.4c1-1.8,2.9-5.5,2.9-5.5a81.14,81.14,0,0,0,7.6-24.5A161.23,161.23,0,0,0,233.9,110.9Z" fill="#a0a8d4"/><path d="M53.9,63.3a28.2,28.2,0,0,1,9.1-10L126.9,8.7,61.4,117s-5.7-9.7-8-14.6A46.47,46.47,0,0,1,53.9,63.3ZM27.5,138a73.06,73.06,0,0,0,28.6,53l70.7,49.3S82.6,176.5,45.2,113.1a63.86,63.86,0,0,1-7.5-21.6,36.24,36.24,0,0,1,0-10.4c-1,1.8-2.9,5.5-2.9,5.5a81.14,81.14,0,0,0-7.6,24.5A161.11,161.11,0,0,0,27.5,138Zm180.3,8.6c-2.3-4.9-8-14.6-8-14.6L134.4,240.3l63.9-44.6a28.2,28.2,0,0,0,9.1-10,46.11,46.11,0,0,0,.4-39.1Zm26-35.6a73.06,73.06,0,0,0-28.6-53L134.6,8.7s44.2,63.8,81.6,127.2a63.86,63.86,0,0,1,7.5,21.6,36.24,36.24,0,0,1,0,10.4c1-1.8,2.9-5.5,2.9-5.5a81.14,81.14,0,0,0,7.6-24.5,152.19,152.19,0,0,0-.2-27Z" fill="url(#c)"/><path d="M301.6,185.5V65.7a.65.65,0,0,1,.6-.6h76.1a.65.65,0,0,1,.6.6V81a.65.65,0,0,1-.6.6H320v35.3h49.7a.65.65,0,0,1,.6.6h0v15.1a.65.65,0,0,1-.6.6H320v36.4h58.4a.65.65,0,0,1,.6.6h0v15.3a.65.65,0,0,1-.6.6H302.3C301.9,186.1,301.6,185.9,301.6,185.5Zm189.4.3L435.3,101v84.5a.65.65,0,0,1-.6.6H417.5a.65.65,0,0,1-.6-.6h0V65.8a.65.65,0,0,1,.6-.6h15.9a.55.55,0,0,1,.5.3l55.8,84.7V65.9a.65.65,0,0,1,.6-.6h17.2a.65.65,0,0,1,.6.6h0V185.6a.65.65,0,0,1-.6.6H491.6A.92.92,0,0,1,491,185.8Zm73.3-22.9v5.7a113.17,113.17,0,0,0,22.4,2.6,118,118,0,0,0,22.1-2.6V141.5l-62.3-21.8a.68.68,0,0,1-.4-.6V69.3a.55.55,0,0,1,.4-.6A153.82,153.82,0,0,1,586.4,63a160.42,160.42,0,0,1,40.1,5.7.55.55,0,0,1,.4.6V88.1a.65.65,0,0,1-.6.6H609.4a.65.65,0,0,1-.6-.6h0V82.4a113.17,113.17,0,0,0-22.4-2.6,110.22,110.22,0,0,0-22.1,2.6l.1,25.6,62.1,21.7a.68.68,0,0,1,.4.6v51.4a.55.55,0,0,1-.4.6,153.82,153.82,0,0,1-39.9,5.7,160.42,160.42,0,0,1-40.1-5.7.55.55,0,0,1-.4-.6V162.9a.65.65,0,0,1,.6-.6h16.8a.68.68,0,0,1,.8.4Z" fill="#2b2b2b"/></svg>