<svg width="147" height="147" viewBox="0 0 147 147" fill="none" xmlns="http://www.w3.org/2000/svg">
<path d="M69.3775 101.726C61.6787 106.171 59.0408 116.016 63.4857 123.714L91.3667 107.617C86.9208 99.9191 77.0763 97.2812 69.3775 101.726Z" fill="#EB8A23"/>
<path d="M72.1018 53.6472L59.2455 63.1728C58.8829 63.4411 58.3708 63.3651 58.1013 63.0025L42.5156 41.9644L56.7011 31.4551L72.2758 52.4773C72.5514 52.8485 72.473 53.3716 72.1018 53.6472Z" fill="#129AC6"/>
<path d="M32.6953 83.169C37.8094 83.169 41.9551 79.0232 41.9551 73.9092C41.9551 68.7952 37.8094 64.6494 32.6953 64.6494C27.5813 64.6494 23.4355 68.7952 23.4355 73.9092C23.4355 79.0232 27.5813 83.169 32.6953 83.169Z" fill="#513E99"/>
<path d="M122.518 92.4326C114.138 92.4326 107.344 99.2265 107.344 107.607H122.518V92.4326Z" fill="#4FBF9F"/>
<path d="M26.9062 97.1039L44.1604 92.6143L39.7332 109.986L26.9062 97.1039Z" fill="#AB3593"/>
<path d="M108.487 56.1309C107.159 60.5053 103.097 63.6903 98.2886 63.6903C93.4805 63.6903 89.4184 60.5053 88.0905 56.1309H75.7891C77.3019 67.2098 86.7957 75.7468 98.2886 75.7468C109.783 75.7468 119.277 67.2085 120.788 56.1309H108.487Z" fill="#F16061"/>
<path className="icon__stroke" d="M72.4185 32.2061C69.5903 32.2061 66.762 33.2808 64.6126 35.4303C60.3137 39.7292 60.3137 46.6866 64.6126 50.9855L78.0184 64.3912C78.5274 65.2397 79.7153 65.3527 80.3941 64.674L94.0826 50.9855C98.3815 46.6866 98.3815 39.7292 94.0826 35.4303C91.9332 33.2808 89.105 32.2061 86.2768 32.2061C83.7879 32.2061 81.3557 32.9979 79.3193 34.6383C77.3396 32.9979 74.9073 32.2061 72.4185 32.2061ZM72.4185 35.1473C74.4548 35.1473 76.4911 35.9393 78.0749 37.5231L78.3012 37.7493C78.8668 38.3149 79.8284 38.3149 80.3941 37.7493L80.6203 37.5231C83.7879 34.3555 88.8222 34.3555 91.9898 37.5231C95.1574 40.6907 95.1574 45.7248 91.9898 48.8924L79.3759 61.5064L66.762 48.8924C63.5944 45.7248 63.5944 40.6907 66.762 37.5231C68.3458 35.9393 70.3822 35.1473 72.4185 35.1473ZM108.337 63.9386C106.527 63.9386 104.717 64.6173 103.303 66.0314L94.6483 74.6858C93.3473 72.5929 90.9716 71.1788 88.3131 71.1788H64.3863C57.8814 71.1788 54.3744 74.6293 51.3765 77.5706L44.9282 84.0191L43.005 82.0959C42.4394 81.5302 41.4778 81.5302 40.9121 82.0959L31.9184 91.0896C31.3527 91.6552 31.3527 92.6168 31.9184 93.1825L54.3744 115.639C54.9401 116.204 55.9017 116.204 56.4673 115.639L65.4611 106.645C66.0267 106.079 66.0267 105.117 65.4611 104.552L63.5379 102.629L65.4611 100.705C66.9317 99.2348 67.8933 98.1601 70.3822 98.1601H91.311C96.4583 98.1601 100.757 95.6147 103.812 91.2027C107.319 86.1119 110.769 79.8332 113.484 75.9302C114.502 74.4595 115.181 72.7627 115.238 71.0658C115.294 69.3123 114.672 67.5022 113.315 66.1447C111.957 64.6175 110.147 63.9386 108.337 63.9386ZM108.337 66.8801C109.355 66.8801 110.43 67.276 111.222 68.0679C112.014 68.8598 112.296 69.7649 112.296 70.783C112.24 71.8012 111.844 72.9889 111.052 74.0637C108.111 78.2494 104.717 84.5281 101.323 89.3361C98.7209 93.1259 95.4967 94.9926 91.311 94.9926H70.3822C66.8752 94.9926 64.8389 96.9157 63.3116 98.4429L61.3884 100.366L47.0211 85.9987L53.4694 79.5504C56.4673 76.5525 58.8996 74.007 64.3863 74.007H88.3131C90.8019 74.007 92.7817 75.9869 92.7817 78.4757C92.7817 80.9645 90.8019 83.0008 88.3131 83.0008H74.8507C72.871 83.0008 72.871 85.9987 74.8507 85.9987H88.3131C92.4423 85.9987 95.7796 82.6049 95.7796 78.5323C95.7796 78.2495 95.7796 77.9665 95.723 77.6837L105.396 68.0112C106.244 67.2759 107.262 66.8801 108.337 66.8801ZM41.9303 85.2069L62.2935 105.57L55.4492 112.414L35.1425 92.0511L41.9303 85.2069Z" fill="#020436"/>
</svg>
