<svg width="147" height="147" viewBox="0 0 147 147" fill="none" xmlns="http://www.w3.org/2000/svg">
<path d="M69.3794 100.524C61.6806 104.969 59.0428 114.813 63.4877 122.512L91.3687 106.415C86.9227 98.7169 77.0782 96.0791 69.3794 100.524Z" fill="#EB8A23"/>
<path d="M72.0999 53.6482L59.2435 63.1738C58.8809 63.442 58.3689 63.3661 58.0994 63.0035L42.5137 41.9653L56.6992 31.4561L72.2738 52.4783C72.5495 52.8495 72.4711 53.3725 72.0999 53.6482Z" fill="#129AC6"/>
<path d="M32.6934 83.17C37.8074 83.17 41.9532 79.0242 41.9532 73.9102C41.9532 68.7961 37.8074 64.6504 32.6934 64.6504C27.5793 64.6504 23.4336 68.7961 23.4336 73.9102C23.4336 79.0242 27.5793 83.17 32.6934 83.17Z" fill="#513E99"/>
<path d="M122.516 92.4336C114.136 92.4336 107.342 99.2274 107.342 107.608H122.516V92.4336Z" fill="#4FBF9F"/>
<path d="M26.9062 97.1049L44.1604 92.6152L39.7332 109.987L26.9062 97.1049Z" fill="#AB3593"/>
<path d="M108.485 56.1328C107.157 60.5073 103.095 63.6923 98.2867 63.6923C93.4786 63.6923 89.4165 60.5073 88.0886 56.1328H75.7871C77.3 67.2117 86.7937 75.7487 98.2867 75.7487C109.781 75.7487 119.275 67.2105 120.786 56.1328H108.485Z" fill="#F16061"/>
<path fill-rule="evenodd" clip-rule="evenodd" d="M103.292 54.1205L107.292 41.3145L94.4861 45.3172L73.5112 66.2944L52.6468 45.43L39.8406 41.4271L43.8433 54.2358L64.7062 75.0975L54.0816 85.724C52.5551 82.8026 51.6919 79.4798 51.6919 75.9554H46.888C46.888 82.003 48.9586 87.567 52.4296 91.9771L36.9883 107.418L41.1868 111.617L56.6092 96.1945C61.0481 99.7534 66.6828 101.882 72.8147 101.882V97.0782C69.2055 97.0782 65.8076 96.173 62.8358 94.5771L73.5111 83.9019L84.2502 94.6404C81.3289 96.167 78.0061 97.0302 74.4817 97.0302V101.834C80.53 101.834 86.0946 99.7629 90.5051 96.2911L105.946 111.732L110.144 107.534L94.7221 92.1112C98.2802 87.6726 100.408 82.0384 100.408 75.9073H95.6045C95.6045 79.5167 94.6992 82.9146 93.1032 85.8864L82.3147 75.0979L103.292 54.1205ZM91.8097 87.9898L51.3662 47.5462L45.972 45.8602L90.1668 90.055C90.7559 89.4022 91.3048 88.7125 91.8097 87.9898ZM88.4592 91.7443L44.273 47.5581L45.9596 52.9552L86.3736 93.3669C87.1029 92.8693 87.7994 92.3271 88.4592 91.7443ZM95.7667 47.4335L75.2096 67.9928L77.0638 69.847L101.161 45.7472L95.7667 47.4335ZM102.861 47.4448L78.7622 71.5454L80.6163 73.3994L101.176 52.8401L102.861 47.4448ZM55.3552 87.8474L66.4047 76.7959L68.2599 78.651L56.9778 89.933C56.3951 89.2732 55.8529 88.5767 55.3552 87.8474ZM58.6672 91.6406L69.9584 80.3494L71.8126 82.2035L60.7324 93.2836C60.0097 92.7787 59.3199 92.2297 58.6672 91.6406Z" fill="#020436"/>
</svg>
