<svg width="147" height="147" viewBox="0 0 147 147" fill="none" xmlns="http://www.w3.org/2000/svg">
<path d="M69.3794 100.524C61.6806 104.969 59.0428 114.813 63.4877 122.512L91.3687 106.415C86.9227 98.7169 77.0782 96.0791 69.3794 100.524Z" fill="#EB8A23"/>
<path d="M72.1018 53.6482L59.2455 63.1738C58.8829 63.442 58.3708 63.3661 58.1013 63.0035L42.5156 41.9653L56.7011 31.4561L72.2758 52.4783C72.5514 52.8495 72.473 53.3725 72.1018 53.6482Z" fill="#129AC6"/>
<path d="M32.6953 83.17C37.8094 83.17 41.9551 79.0242 41.9551 73.9102C41.9551 68.7961 37.8094 64.6504 32.6953 64.6504C27.5813 64.6504 23.4355 68.7961 23.4355 73.9102C23.4355 79.0242 27.5813 83.17 32.6953 83.17Z" fill="#513E99"/>
<path d="M122.518 92.4336C114.138 92.4336 107.344 99.2274 107.344 107.608H122.518V92.4336Z" fill="#4FBF9F"/>
<path d="M26.9082 97.1049L44.1623 92.6152L39.7352 109.987L26.9082 97.1049Z" fill="#AB3593"/>
<path d="M108.487 56.1328C107.159 60.5073 103.097 63.6923 98.2886 63.6923C93.4805 63.6923 89.4184 60.5073 88.0905 56.1328H75.7891C77.3019 67.2117 86.7957 75.7487 98.2886 75.7487C109.783 75.7487 119.277 67.2105 120.788 56.1328H108.487Z" fill="#F16061"/>
<path d="M113.852 74.8867L96.8451 47.906C96.7112 47.6389 96.3095 47.3717 96.0417 47.3717C95.6399 47.2382 95.3721 47.3717 94.9704 47.5053L86.9359 52.5809C86.2663 52.9816 86.1324 53.783 86.5342 54.4508L86.9359 55.1187C83.7221 54.5844 78.7675 54.3173 75.5536 55.7865H75.4197C71.9381 54.5844 66.0461 55.2522 62.5645 55.9201L63.6358 54.1837C64.0375 53.5159 63.7697 52.7145 63.1001 52.3137L55.1995 47.6389C54.9317 47.5053 54.53 47.3717 54.1283 47.5053C53.7265 47.6389 53.4587 47.7724 53.3248 48.1731L37.6575 75.6882C37.2558 76.356 37.5236 77.1574 38.1931 77.5581L45.9598 81.9659C46.2277 82.0994 46.3616 82.0994 46.6294 82.0994C47.0311 82.0994 47.5667 81.8323 47.8346 81.4316L49.4415 78.6267C49.8432 79.5616 50.3788 80.363 50.9145 80.8973C49.9771 81.9659 49.4415 83.3015 49.4415 84.6372C49.4415 86.1065 49.9771 87.5757 51.0484 88.6443C52.1196 89.7128 53.5926 90.2471 55.0656 90.2471C55.1995 90.2471 55.3334 90.2471 55.6013 90.2471C55.6013 90.3806 55.6013 90.5142 55.6013 90.7813C55.6013 92.2506 56.1369 93.7198 57.2082 94.7884C58.2794 95.8569 59.6185 96.3912 61.2254 96.3912C61.3593 96.3912 61.4932 96.3912 61.7611 96.3912C61.7611 96.5248 61.7611 96.6583 61.7611 96.9255C61.7611 98.3947 62.2967 99.864 63.368 100.933C64.4392 102.001 65.9122 102.535 67.3852 102.535C68.8582 102.535 70.1973 102.001 71.4025 100.933L71.9381 100.398L75.1519 102.802C76.2232 103.604 77.2945 104.005 78.4996 104.005C80.2405 104.005 81.8474 103.337 82.7847 102.001C83.4543 101.066 83.856 100.131 83.856 99.0626C83.9899 99.0626 83.9899 99.0626 84.1238 99.0626C85.7307 99.0626 87.3376 98.3947 88.4089 97.0591C89.0784 96.1241 89.4801 95.0555 89.4801 94.1206C89.6141 94.1206 89.748 94.1206 89.8819 94.1206C91.4888 94.1206 93.0957 93.4527 94.167 92.2506C94.8365 91.4492 95.2382 90.5142 95.2382 89.3121C96.5773 89.1785 97.9164 88.5107 98.7198 87.3086C99.925 85.7058 100.059 83.7022 99.2555 82.0994L102.871 79.9623L103.942 81.6987C104.076 81.9659 104.478 82.233 104.746 82.233C104.88 82.233 104.88 82.233 105.014 82.233C105.281 82.233 105.549 82.0994 105.683 81.9659L113.718 76.7567C114.119 76.2224 114.253 75.421 113.852 74.8867ZM46.0937 78.8938L40.6035 75.8217L54.9317 50.4438L60.5559 53.783L46.0937 78.8938ZM52.7892 86.7743C52.2535 86.24 51.9857 85.4386 51.9857 84.7708C51.9857 83.9694 52.2535 83.3015 52.7892 82.7673L53.5926 81.9659C54.6639 80.8973 56.6725 80.8973 57.7438 81.9659C58.2794 82.5001 58.5472 83.3015 58.5472 83.9694C58.5472 84.7708 58.2794 85.4386 57.7438 85.9729L56.9403 86.7743C55.8691 87.8428 53.9944 87.8428 52.7892 86.7743ZM58.8151 92.7849C58.2794 92.2506 58.0116 91.4492 58.0116 90.7813C58.0116 89.9799 58.2794 89.3121 58.8151 88.7778L59.6185 87.9764C60.1542 87.4421 60.9576 87.175 61.6271 87.175C62.2967 87.175 63.1001 87.4421 63.6358 87.9764C64.841 89.1785 64.841 90.9149 63.6358 92.117L62.8323 92.9184C61.895 93.8534 60.0202 93.8534 58.8151 92.7849ZM68.9921 98.7954C67.7869 99.864 66.0461 99.864 64.841 98.7954C64.3053 98.2612 64.0375 97.4598 64.0375 96.7919C64.0375 95.9905 64.3053 95.3227 64.841 94.7884L65.6444 93.987C66.18 93.4527 66.9835 93.1856 67.653 93.1856C68.3226 93.1856 69.126 93.4527 69.6617 93.987C70.1973 94.5213 70.4651 95.3227 70.4651 95.9905C70.4651 96.7919 70.1973 97.4598 69.6617 97.994L68.9921 98.7954ZM96.1756 85.4386C95.6399 86.1065 94.8365 86.5072 93.8991 86.3736C93.7652 86.24 93.4974 86.24 93.2296 86.24C92.9618 86.1065 92.694 85.9729 92.4261 85.8393L89.748 83.7022C89.2123 83.3015 88.275 83.3015 87.8732 83.9694C87.4715 84.5037 87.4715 85.4386 88.1411 85.8393L90.8192 87.9764C91.221 88.2436 91.6227 88.5107 92.1583 88.7778C92.1583 89.3121 92.0244 89.8464 91.7566 90.2471C90.8192 91.3156 89.0784 91.5828 88.0072 90.7813L87.8732 90.6478C87.8732 90.6478 87.7393 90.6478 87.7393 90.5142L85.0612 88.3771C84.5255 87.9764 83.5882 87.9764 83.1864 88.6443C82.7847 89.1785 82.7847 90.1135 83.4543 90.5142L86.1324 92.6513L86.2663 92.7849C86.6681 93.4527 86.6681 94.5213 86.1324 95.1891C85.329 96.1241 83.7221 96.5248 82.6508 95.8569C82.5169 95.7234 82.383 95.7234 82.2491 95.5898L82.1152 95.4562L79.437 93.3191C78.9014 92.9184 77.964 92.9184 77.5623 93.5863C77.1606 94.1205 77.1605 95.0555 77.8301 95.4562L80.5083 97.5933C80.6422 97.5933 80.6422 97.7269 80.7761 97.8605C81.0439 98.6619 81.0439 99.4633 80.3744 100.265C79.9726 100.933 79.1692 101.2 78.2318 101.2C77.5623 101.2 77.0266 101.066 76.491 100.532L73.8128 98.5283L73.1433 98.1276C73.4111 97.4598 73.545 96.7919 73.545 95.9905C73.545 94.5213 73.0094 93.052 71.9381 91.9835C70.7329 90.7813 69.126 90.2471 67.5191 90.3806C67.653 88.7778 67.1174 87.175 65.9122 85.9729C64.707 84.7708 63.1001 84.2365 61.4932 84.3701C61.4932 84.2365 61.4932 84.1029 61.4932 83.8358C61.4932 82.3666 60.9576 80.8973 59.8863 79.8288C58.8151 78.7602 57.476 78.226 55.8691 78.226C54.7978 78.226 53.7265 78.4931 52.9231 79.0274C52.3875 78.3595 51.584 77.1574 51.3162 75.421L60.9576 58.725C63.6358 58.1907 69.2599 57.2558 73.0094 57.79L63.7697 66.3384C62.1628 67.9412 62.0289 70.479 63.6358 72.2154C64.4392 73.1504 65.6444 73.6846 66.8496 73.6846C67.653 73.6846 68.4565 73.4175 69.126 73.0168L76.7588 67.9412C77.8301 67.1398 79.1692 66.8727 80.5083 67.1398L81.8474 67.2734L94.033 80.0959L96.1756 82.3666C96.8451 83.0344 96.8451 84.5037 96.1756 85.4386ZM97.2468 79.6952L95.7739 78.0924L85.8646 67.5405L87.6054 67.6741C88.275 67.8076 88.9445 67.2734 89.0784 66.472C89.2123 65.8041 88.6767 65.1363 87.8732 65.0027L82.7847 64.4684C82.5169 64.3349 82.383 64.3349 82.1152 64.3349L80.7761 64.2013C78.9014 63.9342 76.7588 64.3349 75.1519 65.537L67.5191 70.6126C66.8496 71.0133 66.0461 70.8797 65.5105 70.3454C64.9749 69.6776 64.9749 68.7426 65.5105 68.2083L75.5536 58.8586C75.6876 58.725 75.9554 58.5914 76.0893 58.3243C76.3571 58.3243 76.491 58.1907 76.6249 58.0572C79.437 56.7215 85.1951 57.2558 88.8106 58.0572L100.996 77.4245L97.2468 79.6952ZM105.147 78.8938L104.21 77.5581C104.21 77.4245 104.21 77.291 104.076 77.1574C103.942 77.0238 103.808 76.8903 103.808 76.7567L89.6141 54.0501L95.3721 50.4438L110.906 75.1539L105.147 78.8938Z" fill="#020436"/>
</svg>
