<svg xmlns="http://www.w3.org/2000/svg" viewBox="0 0 1157.21 343.51"><title>pokemol__brand--standard-white</title><path d="M367.65,227.36c-3.55,0-5.11-1.56-5.11-5.11v-92c0-3.55,1.56-5.11,5.11-5.11h43.43c25.83,0,33.49,11.22,33.49,27.68V171c0,16.47-7.66,27.68-33.49,27.68H394.75v23.56c0,3.55-1.56,5.11-5.11,5.11Zm26.82-54.22h12.77c5.54,0,6.67-3.26,6.67-6.95v-7.52c0-3.69-1.13-7-6.67-7H394.47Z" fill="#fff"/><path d="M501.9,229.49c-35.48,0-44.13-11.64-44.13-29V152.14c0-17.32,8.65-29.1,44.13-29.1s44,11.78,44,29.1v48.39C545.9,217.85,537.38,229.49,501.9,229.49Zm0-27.39c10.36,0,11.93-2.84,11.93-6.68V157.25c0-3.69-1.57-6.53-11.93-6.53-10.21,0-11.92,2.84-11.92,6.53v38.17C490,199.26,491.69,202.1,501.9,202.1Z" fill="#fff"/><path d="M569,227.36c-3.55,0-5.11-1.56-5.11-5.11v-92c0-3.55,1.56-5.11,5.11-5.11h22c3.55,0,5.11,1.56,5.11,5.11v32.64h5.68l14.61-33.06c1.42-3.41,3.41-4.69,7.1-4.69h21.86c3.26,0,4.4,1.71,3.12,4.69L634,162.92c10.65.57,17.46,8,17.46,19.31v40c0,3.55-1.56,5.11-5.11,5.11H624.52c-3.54,0-5.1-1.56-5.1-5.11V194.57c0-3.12-1.57-4.82-4.55-4.82H596.14v32.5c0,3.55-1.56,5.11-5.11,5.11Z" fill="#fff"/><path d="M674.9,227.36c-3.54,0-5.1-1.56-5.1-5.11v-92c0-3.55,1.56-5.11,5.1-5.11h65.86c3.54,0,5.11,1.56,5.11,5.11v16.61c0,3.54-1.57,5.11-5.11,5.11H701.59v10.92h27.67c3.55,0,5.11,1.57,5.11,5.11v15.19c0,3.55-1.56,5.11-5.11,5.11H701.59v12.2h39.17c3.54,0,5.11,1.57,5.11,5.11v16.61c0,3.55-1.57,5.11-5.11,5.11Zm10.79-106.87c-3.26.43-4.82-1.42-4.82-4.68V102.18c0-3.55,1.56-4.68,5.1-5.11L735.51,91c3.26-.43,4.82,1.42,4.82,4.68v13.63c0,3.55-1.56,4.68-5.11,5.11Z" fill="#fff"/><path d="M767.72,227.36c-3.55,0-5.11-1.56-5.11-5.11v-92c0-3.55,1.56-5.11,5.11-5.11h22.85c3,0,4.82,1.14,6.53,4.26l12.77,23.13c1,1.71,1.42,2.42,2.56,2.42h1.27c1.14,0,1.56-.71,2.56-2.42l12.63-23.13c1.7-3.12,3.55-4.26,6.53-4.26h23c3.55,0,5.11,1.56,5.11,5.11v92c0,3.55-1.56,5.11-5.11,5.11H836.55c-3.69,0-5.11-1.56-5.11-5.11v-50l-8.37,15.47c-1.7,3.26-3.83,4.54-7.52,4.54h-5.68c-3.69,0-5.82-1.28-7.52-4.54L794,172.29v50c0,3.55-1.56,5.11-5.11,5.11Z" fill="#fff"/><path d="M925.68,229.49c-35.48,0-44.14-11.64-44.14-29V152.14c0-17.32,8.66-29.1,44.14-29.1s44,11.78,44,29.1v48.39C969.68,217.85,961.16,229.49,925.68,229.49Zm0-27.39c10.36,0,11.92-2.84,11.92-6.68V157.25c0-3.69-1.56-6.53-11.92-6.53s-11.92,2.84-11.92,6.53v38.17C913.76,199.26,915.46,202.1,925.68,202.1Z" fill="#fff"/><path d="M992.81,227.36c-3.55,0-5.11-1.56-5.11-5.11v-92c0-3.55,1.56-5.11,5.11-5.11h22c3.54,0,5.11,1.56,5.11,5.11v70.25h19.44v-23c0-3.55,1.56-5.11,5.11-5.11h20.58c3.54,0,5.11,1.56,5.11,5.11v44.71c0,3.55-1.57,5.11-5.11,5.11Z" fill="#fff"/><polygon points="77.31 175.26 93.02 166.8 78.81 156.01 95.64 150.11 83.31 137.22 100.86 134.04 90.7 119.38 108.54 119 100.81 102.92 118.49 105.33 113.36 88.24 130.44 93.38 128.03 75.7 144.11 83.43 144.49 65.6 159.15 75.75 162.33 58.2 175.22 70.54 181.12 53.7 191.91 67.91 200.37 52.2 208.82 67.91 219.61 53.7 225.52 70.54 238.4 58.2 241.58 75.75 256.25 65.6 256.63 83.44 272.71 75.7 270.29 93.38 287.38 88.25 282.25 105.33 299.93 102.92 292.19 119 310.03 119.38 299.87 134.05 317.43 137.22 305.09 150.11 321.92 156.01 307.71 166.8 323.42 175.26 307.71 183.72 321.92 194.5 305.09 200.41 317.43 213.3 299.87 216.47 310.03 231.14 292.19 231.52 299.92 247.6 282.25 245.19 287.38 262.27 270.29 257.14 272.7 274.82 256.63 267.08 256.25 284.92 241.58 274.76 238.4 292.32 225.52 279.98 219.61 296.82 208.82 282.61 200.37 298.31 191.91 282.61 181.12 296.82 175.22 279.98 162.33 292.32 159.15 274.76 144.48 284.92 144.1 267.08 128.03 274.81 130.44 257.14 113.35 262.27 118.48 245.18 100.81 247.6 108.54 231.52 90.7 231.14 100.86 216.47 83.3 213.29 95.64 200.41 78.81 194.5 93.02 183.72 77.31 175.26"/><path d="M200.37,306.43l-9-16.74-11.5,15.15-6.3-17.95-13.74,13.16-3.39-18.73-15.64,10.83-.4-19-17.14,8.24,2.57-18.84L107.61,268l5.47-18.21-18.84,2.57,8.25-17.13-19-.41L94.3,219.19,75.58,215.8l13.16-13.74-17.95-6.29,15.14-11.5-16.73-9,16.73-9-15.14-11.5,17.95-6.3L75.58,134.71l18.72-3.39L83.47,115.68l19-.4L94.25,98.14l18.83,2.57L107.62,82.5,125.82,88l-2.57-18.83,17.14,8.24.4-19,15.64,10.83,3.39-18.72,13.74,13.16,6.3-18,11.5,15.15,9-16.74,9,16.74,11.49-15.15,6.3,18,13.74-13.16,3.39,18.72,15.64-10.83.41,19,17.13-8.24L274.91,88l18.21-5.47-5.47,18.21,18.84-2.57-8.24,17.13,19,.41-10.83,15.64,18.73,3.38L312,148.46,330,154.75l-15.15,11.5,16.73,9-16.73,9L330,195.77l-18,6.29,13.16,13.74-18.72,3.39,10.83,15.65-19,.4,8.24,17.14-18.84-2.57,5.47,18.2-18.21-5.47,2.57,18.84-17.14-8.24-.4,19L244.3,281.33l-3.39,18.72-13.74-13.16-6.3,17.95-11.49-15.15Zm-7.91-30.91,7.91,14.68,7.9-14.68,10.08,13.27,5.51-15.72,12,11.52,3-16.39,13.69,9.49.36-16.66,15,7.22-2.26-16.51,16,4.79-4.8-16,16.52,2.25-7.22-15,16.65-.35-9.48-13.7,16.39-3-11.52-12,15.72-5.52-13.27-10.07,14.68-7.91-14.68-7.91,13.27-10.08-15.72-5.51,11.52-12-16.39-3,9.49-13.7-16.66-.35,7.22-15L276.84,110l4.8-16-16,4.79,2.25-16.51-15,7.22-.35-16.66-13.7,9.49-3-16.4-12,11.52-5.52-15.72L208.27,75l-7.9-14.68L192.46,75,182.38,61.72l-5.51,15.72-12-11.52-3,16.39-13.69-9.48-.35,16.66-15-7.23,2.25,16.52-16-4.8,4.8,16-16.52-2.25,7.23,15-16.66.35,9.48,13.69-16.39,3,11.52,12-15.72,5.51,13.28,10.08-14.69,7.91,14.69,7.91L86.83,193.24l15.72,5.52L91,210.78l16.39,3-9.48,13.7,16.66.35-7.23,15,16.52-2.25-4.8,16,16-4.79-2.26,16.51,15-7.22.36,16.66,13.69-9.49,3,16.39,12-11.52,5.51,15.72Z"/><circle cx="200.37" cy="175.26" r="110.24" fill="#e81858"/><path d="M200,259.86c21.79,0,41-6.41,59-19.23,25.66-18.32,23.07-46.14,0-35.89-7.86,3.49-25,19.23-59,19.23h.34c-34,0-51.11-15.74-59-19.23-23.07-10.25-25.65,17.57,0,35.89,17.95,12.82,37.18,19.23,59,19.23" fill="#aa174c"/><path d="M200.37,262.42H200c-22-.06-41.65-6.51-60.12-19.7-13.29-9.5-23.81-26.43-17.63-37.24,3.43-6,11-7.17,20.16-3.08a57.88,57.88,0,0,1,6.23,3.52c9.44,5.78,25.22,15.44,51.53,15.48s42.08-9.7,51.52-15.48A57.88,57.88,0,0,1,258,202.4c9.19-4.09,16.73-2.94,20.16,3.08,6.18,10.81-4.34,27.74-17.63,37.24-18.47,13.19-38.14,19.64-60.11,19.7Zm-67.85-57.33c-2.68,0-4.68,1-5.79,2.93-3.23,5.65.59,19.4,16.16,30.53,17.62,12.58,36.36,18.71,57.31,18.75s39.68-6.17,57.3-18.75c15.57-11.13,19.39-24.88,16.16-30.53-2-3.54-7-3.88-13.63-.94a59.5,59.5,0,0,0-5.63,3.21c-9.88,6.05-26.38,16.16-54,16.24H200c-27.66-.08-44.16-10.19-54-16.24a58.27,58.27,0,0,0-5.63-3.21A19.93,19.93,0,0,0,132.52,205.09Z"/><path d="M200.37,289.34A114.08,114.08,0,1,1,314.45,175.26,114.22,114.22,0,0,1,200.37,289.34Zm0-220.47A106.39,106.39,0,1,0,306.76,175.26,106.51,106.51,0,0,0,200.37,68.87Z"/><circle cx="157.38" cy="156.64" r="30.16" fill="#fff"/><path d="M157.38,189.36a32.73,32.73,0,1,1,32.73-32.72A32.76,32.76,0,0,1,157.38,189.36Zm0-60.32a27.6,27.6,0,1,0,27.6,27.6A27.63,27.63,0,0,0,157.38,129Z"/><circle cx="242.07" cy="156.64" r="30.16" fill="#fff"/><path d="M242.07,189.36a32.73,32.73,0,1,1,32.73-32.72A32.76,32.76,0,0,1,242.07,189.36Zm0-60.32a27.6,27.6,0,1,0,27.6,27.6A27.63,27.63,0,0,0,242.07,129Z"/><circle cx="157.38" cy="161.24" r="17.95"/><circle cx="242.07" cy="161.24" r="17.95"/><path d="M200.37,224l-9,19.91-6.51-18.63-11.26,15.38L168,220.12,142.65,257.3l5.06-49S171.51,224,200.37,224Z" fill="#fff"/><path d="M141.77,258.61l3.82-54.73,3.53,2.32a103.91,103.91,0,0,0,19,9.11l1.3.47a103.18,103.18,0,0,0,16,4.28l.18-.26.11.31a84.3,84.3,0,0,0,14.44,1.29h4.1l-13.25,29.39-7-20.09-11.52,15.73L167,226.15Zm8.08-46-2.55,32.61,17.86-25.5A114.37,114.37,0,0,1,149.85,212.61Zm37.88,13,4,11.34,4.74-10.52C193.46,226.31,190.55,226,187.73,225.63Zm-16.62-3.84,3.58,13.05,7.45-10.18A105.31,105.31,0,0,1,171.11,221.79Z"/><path d="M200.37,259.86l-9-16-9.54,14.7-8.55-17.95-10.52,11.84S175.23,259.86,200.37,259.86Z" fill="#fff"/><path d="M180,260.67c-12-2.23-18.16-5.78-18.53-6l-2.67-1.59L174,236l8.25,17.3,9.35-14.41,13.2,23.49h-4.38a116.26,116.26,0,0,1-17.17-1.22Zm6.3-4.23c2.92.37,6.14.65,9.64.78l-4.71-8.39ZM167,251.62a64.84,64.84,0,0,0,10.26,3.21l-4.58-9.61Z"/><path d="M199.71,224l9,19.91,6.51-18.63,11.26,15.38,5.64-20.51,25.33,37.18-5.06-49S228.57,224,199.71,224Z" fill="#fff"/><path d="M257.42,258.61l-24.33-32.46-5.57,20.28L216,230.7l-7,20.09L195.74,221.4h4a88.6,88.6,0,0,0,14.56-1.29l.3-.05a103.18,103.18,0,0,0,16.05-4.28l1.29-.47a103.49,103.49,0,0,0,19-9.11l3.53-2.32Zm-22.5-38.89L253,245.22l-2.74-32.61A115.6,115.6,0,0,1,234.92,219.72Zm-31.28,6.73L208.38,237l4-11.34C209.52,226,206.61,226.31,203.64,226.45Zm14.3-1.79,7.45,10.18L229,221.79A106,106,0,0,1,217.94,224.66Z"/><path d="M199.71,259.86l9-16,9.55,14.7,8.54-17.95,10.52,11.84S224.84,259.86,199.71,259.86Z" fill="#fff"/><path d="M216.87,261.2a116.11,116.11,0,0,1-17.16,1.22h-4.38l13.19-23.49,9.36,14.41,8.24-17.3,15.15,17-2.67,1.59c-.36.22-6.49,3.77-18.53,6Zm-8-12.37-4.71,8.39c3.51-.13,6.72-.41,9.65-.78Zm18.58-3.61-4.57,9.61a65.54,65.54,0,0,0,10.26-3.21Z"/><path d="M178.58,199.61a39.56,39.56,0,0,0,12.81,2.57"/><path d="M191.39,206a43.32,43.32,0,0,1-14.24-2.84A3.84,3.84,0,0,1,180,196a36,36,0,0,0,11.39,2.29,3.85,3.85,0,1,1,0,7.69Z"/><path d="M219.59,199.61a39.64,39.64,0,0,1-12.81,2.57"/><path d="M206.78,206a3.85,3.85,0,1,1,0-7.69A36.18,36.18,0,0,0,218.17,196a3.84,3.84,0,0,1,2.85,7.14A43.39,43.39,0,0,1,206.78,206Z"/><path d="M110.64,190a2.54,2.54,0,0,1-1.62-.58,2.57,2.57,0,0,1-.37-3.61c10.14-12.39,27.4-8.67,35.11-5a2.56,2.56,0,0,1-2.21,4.62,37.44,37.44,0,0,0-11-2.92c-7.72-.78-13.77,1.41-17.95,6.52A2.54,2.54,0,0,1,110.64,190Z"/><path d="M289.44,189.36a2.57,2.57,0,0,1-2-.94c-10.14-12.39-28.73-3.68-28.92-3.59a2.57,2.57,0,1,1-2.21-4.63c7.7-3.7,25-7.41,35.1,5a2.56,2.56,0,0,1-2,4.19Z"/><path d="M219.36,83.87a12.71,12.71,0,0,1,2.77-11l32-37.3a4.2,4.2,0,0,1,7.23,3.62L262,89.41a11.92,11.92,0,0,1-10.56,12C238.21,102.92,222.8,99.58,219.36,83.87Z" fill="#e81858"/><path d="M245.6,104.33c-15.4,0-26-7.19-28.75-19.91h0a15.37,15.37,0,0,1,3.34-13.23l32-37.3a6.76,6.76,0,0,1,11.74,5.49l.66,50A14.43,14.43,0,0,1,251.76,104,55.14,55.14,0,0,1,245.6,104.33Zm11.61-67.6a1.53,1.53,0,0,0-1.17.55l-32,37.25a10.2,10.2,0,0,0-2.22,8.79h0c1.21,5.54,6.51,18.13,29.32,15.55a9.32,9.32,0,0,0,8.29-9.42L258.81,39l.05-.26a1.56,1.56,0,0,0-.87-1.77A1.81,1.81,0,0,0,257.21,36.73Z"/><path d="M180.84,83.87a12.75,12.75,0,0,0-2.78-11l-32-37.3a4.2,4.2,0,0,0-7.23,3.62l-.66,50.23a11.92,11.92,0,0,0,10.56,12C162,102.92,177.39,99.58,180.84,83.87Z" fill="#e81858"/><path d="M154.6,104.33a55.18,55.18,0,0,1-6.17-.36A14.43,14.43,0,0,1,135.6,89.38l.65-50A6.76,6.76,0,0,1,148,33.84L180,71.19a15.37,15.37,0,0,1,3.34,13.23h0C180.55,97.14,170,104.33,154.6,104.33ZM143,36.72a1.72,1.72,0,0,0-.8.2,1.55,1.55,0,0,0-.88,1.77l0,.26-.66,50.5A9.32,9.32,0,0,0,149,98.87c22.83,2.58,28.11-10,29.32-15.55h0a10.2,10.2,0,0,0-2.22-8.79l-32-37.3A1.43,1.43,0,0,0,143,36.72Z"/></svg>