<svg width="23" height="25" viewBox="0 0 23 25" fill="none" xmlns="http://www.w3.org/2000/svg">
<path d="M0.0817387 24.9997C0.0490432 24.6074 0 24.3458 0 24.0842C0 20.1935 0 16.3027 0 12.412C0 11.3821 0.0326955 11.333 1.04625 11.333C7.74883 11.333 14.435 11.333 21.1376 11.333C22.004 11.333 22.0694 11.3821 22.0694 12.1667C22.0858 16.221 22.0694 20.2752 22.0694 24.3295C22.0694 24.5093 22.0204 24.6891 21.9714 24.9997C21.6444 24.8362 21.3828 24.7381 21.1376 24.591C18.0479 22.8745 14.9418 21.158 11.8848 19.4088C11.2636 19.0491 10.7895 19.0655 10.1683 19.4251C7.12761 21.1416 4.07059 22.8255 1.02991 24.5256C0.751996 24.6728 0.474084 24.8035 0.0817387 24.9997Z" fill="white"/>
<path d="M11.1023 2.96314C7.78373 2.96314 4.46514 2.96314 1.14655 2.96314C0.0349031 2.96314 0.00220767 2.94679 0.0185554 1.8188C0.00220767 -0.175628 -0.144922 0.0041973 1.80046 0.0041973C8.06164 0.0041973 14.3065 0.0041973 20.5677 0.0041973C20.7802 0.0041973 21.009 0.0041973 21.2216 0.0041973C21.9572 0.0368928 22.0226 0.102284 22.0553 0.788889C22.0716 1.27932 22.0553 1.76975 22.0553 2.26018C22.0716 2.73427 21.8428 2.96314 21.3687 2.94679C20.7148 2.93044 20.0609 2.94679 19.407 2.94679C16.6442 2.96314 13.8651 2.96314 11.1023 2.96314Z" fill="white"/>
<path d="M11.0021 5.64453C14.3207 5.64453 17.6392 5.64453 20.9578 5.64453C22.0368 5.64453 22.0695 5.66088 22.0695 6.73983C22.0695 8.88138 22.233 8.58712 20.2549 8.58712C14.0264 8.60347 7.79791 8.58712 1.56943 8.58712C1.29151 8.58712 1.02995 8.57078 0.752039 8.58712C0.24526 8.60347 4.35663e-05 8.39095 0.0163913 7.86782C0.032739 7.54087 0.0163913 7.21391 0.0163913 6.88696C0.0163913 5.64453 0.0163913 5.64453 1.22612 5.64453C4.47932 5.64453 7.73252 5.64453 11.0021 5.64453Z" fill="white"/>
</svg>
