<svg width="60" height="60" viewBox="0 0 60 60" fill="none" xmlns="http://www.w3.org/2000/svg">
<path d="M12.13 51.7672C12.078 51.1431 12 50.727 12 50.3109C12 44.122 12 37.933 12 31.7441C12 30.1058 12.052 30.0278 13.6643 30.0278C24.3259 30.0278 34.9615 30.0278 45.6231 30.0278C47.0014 30.0278 47.1054 30.1058 47.1054 31.354C47.1314 37.803 47.1054 44.252 47.1054 50.701C47.1054 50.987 47.0274 51.2731 46.9493 51.7672C46.4293 51.5071 46.0132 51.3511 45.6231 51.1171C40.7084 48.3866 35.7676 45.6562 30.9049 42.8738C29.9167 42.3017 29.1626 42.3277 28.1745 42.8998C23.3377 45.6302 18.475 48.3086 13.6383 51.013C13.1962 51.2471 12.7541 51.4551 12.13 51.7672Z"/>
<path d="M29.6584 16.7134C24.3795 16.7134 19.1007 16.7134 13.8219 16.7134C12.0537 16.7134 12.0016 16.6874 12.0277 14.8931C12.0016 11.7206 11.7676 12.0067 14.8621 12.0067C24.8216 12.0067 34.7551 12.0067 44.7147 12.0067C45.0527 12.0067 45.4168 12.0067 45.7548 12.0067C46.925 12.0587 47.029 12.1627 47.081 13.2549C47.107 14.035 47.081 14.8151 47.081 15.5952C47.107 16.3493 46.743 16.7134 45.9889 16.6874C44.9487 16.6614 43.9085 16.6874 42.8684 16.6874C38.4737 16.7134 34.053 16.7134 29.6584 16.7134Z"/>
<path d="M29.5013 20.9785C34.7801 20.9785 40.0589 20.9785 45.3377 20.9785C47.054 20.9785 47.106 21.0045 47.106 22.7208C47.106 26.1273 47.366 25.6592 44.2195 25.6592C34.312 25.6852 24.4045 25.6592 14.497 25.6592C14.0549 25.6592 13.6389 25.6332 13.1968 25.6592C12.3907 25.6852 12.0006 25.3472 12.0266 24.5151C12.0526 23.995 12.0266 23.4749 12.0266 22.9548C12.0266 20.9785 12.0266 20.9785 13.9509 20.9785C19.1257 20.9785 24.3005 20.9785 29.5013 20.9785Z"/>
</svg>
